<svg id="visual" viewBox="0 0 960 540" width="960" height="540" xmlns="http://www.w3.org/2000/svg" xmlns:xlink="http://www.w3.org/1999/xlink" version="1.1"><rect x="0" y="0" width="960" height="540" fill="#001220"></rect><path d="M0 196L8.8 194.5C17.7 193 35.3 190 53.2 189.3C71 188.7 89 190.3 106.8 189C124.7 187.7 142.3 183.3 160 184.2C177.7 185 195.3 191 213.2 191.8C231 192.7 249 188.3 266.8 186.2C284.7 184 302.3 184 320 185.3C337.7 186.7 355.3 189.3 373.2 188.5C391 187.7 409 183.3 426.8 185.7C444.7 188 462.3 197 480 201C497.7 205 515.3 204 533.2 200.2C551 196.3 569 189.7 586.8 185.3C604.7 181 622.3 179 640 180C657.7 181 675.3 185 693.2 188.8C711 192.7 729 196.3 746.8 194.7C764.7 193 782.3 186 800 184.2C817.7 182.3 835.3 185.7 853.2 189.2C871 192.7 889 196.3 906.8 196.7C924.7 197 942.3 194 951.2 192.5L960 191L960 0L951.2 0C942.3 0 924.7 0 906.8 0C889 0 871 0 853.2 0C835.3 0 817.7 0 800 0C782.3 0 764.7 0 746.8 0C729 0 711 0 693.2 0C675.3 0 657.7 0 640 0C622.3 0 604.7 0 586.8 0C569 0 551 0 533.2 0C515.3 0 497.7 0 480 0C462.3 0 444.7 0 426.8 0C409 0 391 0 373.2 0C355.3 0 337.7 0 320 0C302.3 0 284.7 0 266.8 0C249 0 231 0 213.2 0C195.3 0 177.7 0 160 0C142.3 0 124.7 0 106.8 0C89 0 71 0 53.2 0C35.3 0 17.7 0 8.8 0L0 0Z" fill="#00f9e2"></path><path d="M0 150L8.8 149.2C17.7 148.3 35.3 146.7 53.2 147C71 147.3 89 149.7 106.8 148C124.7 146.3 142.3 140.7 160 137.8C177.7 135 195.3 135 213.2 136.7C231 138.3 249 141.7 266.8 144.3C284.7 147 302.3 149 320 146.7C337.7 144.3 355.3 137.7 373.2 138.2C391 138.7 409 146.3 426.8 149.2C444.7 152 462.3 150 480 148C497.7 146 515.3 144 533.2 142.8C551 141.7 569 141.3 586.8 142.5C604.7 143.7 622.3 146.3 640 146.2C657.7 146 675.3 143 693.2 144C711 145 729 150 746.8 149.3C764.7 148.7 782.3 142.3 800 142.7C817.7 143 835.3 150 853.2 150.7C871 151.3 889 145.7 906.8 144C924.7 142.3 942.3 144.7 951.2 145.8L960 147L960 0L951.2 0C942.3 0 924.7 0 906.8 0C889 0 871 0 853.2 0C835.3 0 817.7 0 800 0C782.3 0 764.7 0 746.8 0C729 0 711 0 693.2 0C675.3 0 657.7 0 640 0C622.3 0 604.7 0 586.8 0C569 0 551 0 533.2 0C515.3 0 497.7 0 480 0C462.3 0 444.7 0 426.8 0C409 0 391 0 373.2 0C355.3 0 337.7 0 320 0C302.3 0 284.7 0 266.8 0C249 0 231 0 213.2 0C195.3 0 177.7 0 160 0C142.3 0 124.7 0 106.8 0C89 0 71 0 53.2 0C35.3 0 17.7 0 8.8 0L0 0Z" fill="#00d9ff"></path><path d="M0 96L8.8 95C17.7 94 35.3 92 53.2 92C71 92 89 94 106.8 96C124.7 98 142.3 100 160 101.3C177.7 102.7 195.3 103.3 213.2 100.8C231 98.3 249 92.7 266.8 90.7C284.7 88.7 302.3 90.3 320 93.2C337.7 96 355.3 100 373.2 100.8C391 101.7 409 99.3 426.8 99.8C444.7 100.3 462.3 103.7 480 102.5C497.7 101.3 515.3 95.7 533.2 95.3C551 95 569 100 586.8 103.5C604.7 107 622.3 109 640 109.3C657.7 109.7 675.3 108.3 693.2 107.5C711 106.7 729 106.3 746.8 103C764.7 99.7 782.3 93.3 800 93C817.7 92.7 835.3 98.3 853.2 101.3C871 104.3 889 104.7 906.8 103.2C924.7 101.7 942.3 98.3 951.2 96.7L960 95L960 0L951.2 0C942.3 0 924.7 0 906.8 0C889 0 871 0 853.2 0C835.3 0 817.7 0 800 0C782.3 0 764.7 0 746.8 0C729 0 711 0 693.2 0C675.3 0 657.7 0 640 0C622.3 0 604.7 0 586.8 0C569 0 551 0 533.2 0C515.3 0 497.7 0 480 0C462.3 0 444.7 0 426.8 0C409 0 391 0 373.2 0C355.3 0 337.7 0 320 0C302.3 0 284.7 0 266.8 0C249 0 231 0 213.2 0C195.3 0 177.7 0 160 0C142.3 0 124.7 0 106.8 0C89 0 71 0 53.2 0C35.3 0 17.7 0 8.8 0L0 0Z" fill="#00b2ff"></path><path d="M0 53L8.8 54.5C17.7 56 35.3 59 53.2 57.8C71 56.7 89 51.3 106.8 50C124.7 48.7 142.3 51.3 160 51.2C177.7 51 195.3 48 213.2 48.2C231 48.3 249 51.7 266.8 52.8C284.7 54 302.3 53 320 54.2C337.7 55.3 355.3 58.7 373.2 60.3C391 62 409 62 426.8 61.7C444.7 61.3 462.3 60.7 480 59.3C497.7 58 515.3 56 533.2 55.2C551 54.3 569 54.7 586.8 53.2C604.7 51.7 622.3 48.3 640 49.2C657.7 50 675.3 55 693.2 58C711 61 729 62 746.8 60.3C764.7 58.7 782.3 54.3 800 53.3C817.7 52.3 835.3 54.7 853.2 56.8C871 59 889 61 906.8 60.8C924.7 60.7 942.3 58.3 951.2 57.2L960 56L960 0L951.2 0C942.3 0 924.7 0 906.8 0C889 0 871 0 853.2 0C835.3 0 817.7 0 800 0C782.3 0 764.7 0 746.8 0C729 0 711 0 693.2 0C675.3 0 657.7 0 640 0C622.3 0 604.7 0 586.8 0C569 0 551 0 533.2 0C515.3 0 497.7 0 480 0C462.3 0 444.7 0 426.8 0C409 0 391 0 373.2 0C355.3 0 337.7 0 320 0C302.3 0 284.7 0 266.8 0C249 0 231 0 213.2 0C195.3 0 177.7 0 160 0C142.3 0 124.7 0 106.8 0C89 0 71 0 53.2 0C35.3 0 17.7 0 8.8 0L0 0Z" fill="#0d81fe"></path></svg>