<svg id="visual" viewBox="0 0 960 540" width="960" height="540" xmlns="http://www.w3.org/2000/svg" xmlns:xlink="http://www.w3.org/1999/xlink" version="1.1"><rect x="0" y="0" width="960" height="540" fill="#001220"></rect><path d="M0 330L17.8 332.8C35.7 335.7 71.3 341.3 106.8 339.8C142.3 338.3 177.7 329.7 213.2 328.2C248.7 326.7 284.3 332.3 320 331.3C355.7 330.3 391.3 322.7 426.8 319.7C462.3 316.7 497.7 318.3 533.2 321.2C568.7 324 604.3 328 640 330.2C675.7 332.3 711.3 332.7 746.8 331.8C782.3 331 817.7 329 853.2 330C888.7 331 924.3 335 942.2 337L960 339L960 541L942.2 541C924.3 541 888.7 541 853.2 541C817.7 541 782.3 541 746.8 541C711.3 541 675.7 541 640 541C604.3 541 568.7 541 533.2 541C497.7 541 462.3 541 426.8 541C391.3 541 355.7 541 320 541C284.3 541 248.7 541 213.2 541C177.7 541 142.3 541 106.8 541C71.3 541 35.7 541 17.8 541L0 541Z" fill="#c62368"></path><path d="M0 388L17.8 387.5C35.7 387 71.3 386 106.8 382.5C142.3 379 177.7 373 213.2 373.8C248.7 374.7 284.3 382.3 320 385.3C355.7 388.3 391.3 386.7 426.8 386.7C462.3 386.7 497.7 388.3 533.2 383.3C568.7 378.3 604.3 366.7 640 361.7C675.7 356.7 711.3 358.3 746.8 360C782.3 361.7 817.7 363.3 853.2 365.2C888.7 367 924.3 369 942.2 370L960 371L960 541L942.2 541C924.3 541 888.7 541 853.2 541C817.7 541 782.3 541 746.8 541C711.3 541 675.7 541 640 541C604.3 541 568.7 541 533.2 541C497.7 541 462.3 541 426.8 541C391.3 541 355.7 541 320 541C284.3 541 248.7 541 213.2 541C177.7 541 142.3 541 106.8 541C71.3 541 35.7 541 17.8 541L0 541Z" fill="#d53867"></path><path d="M0 399L17.8 402.5C35.7 406 71.3 413 106.8 416.8C142.3 420.7 177.7 421.3 213.2 419.2C248.7 417 284.3 412 320 408.2C355.7 404.3 391.3 401.7 426.8 401.7C462.3 401.7 497.7 404.3 533.2 406.3C568.7 408.3 604.3 409.7 640 409.5C675.7 409.3 711.3 407.7 746.8 409.2C782.3 410.7 817.7 415.3 853.2 418.8C888.7 422.3 924.3 424.7 942.2 425.8L960 427L960 541L942.2 541C924.3 541 888.7 541 853.2 541C817.7 541 782.3 541 746.8 541C711.3 541 675.7 541 640 541C604.3 541 568.7 541 533.2 541C497.7 541 462.3 541 426.8 541C391.3 541 355.7 541 320 541C284.3 541 248.7 541 213.2 541C177.7 541 142.3 541 106.8 541C71.3 541 35.7 541 17.8 541L0 541Z" fill="#e34c67"></path><path d="M0 459L17.8 460.2C35.7 461.3 71.3 463.7 106.8 462C142.3 460.3 177.7 454.7 213.2 454.3C248.7 454 284.3 459 320 460.8C355.7 462.7 391.3 461.3 426.8 459.3C462.3 457.3 497.7 454.7 533.2 455C568.7 455.3 604.3 458.7 640 457.2C675.7 455.7 711.3 449.3 746.8 446.3C782.3 443.3 817.7 443.7 853.2 446.7C888.7 449.7 924.3 455.3 942.2 458.2L960 461L960 541L942.2 541C924.3 541 888.7 541 853.2 541C817.7 541 782.3 541 746.8 541C711.3 541 675.7 541 640 541C604.3 541 568.7 541 533.2 541C497.7 541 462.3 541 426.8 541C391.3 541 355.7 541 320 541C284.3 541 248.7 541 213.2 541C177.7 541 142.3 541 106.8 541C71.3 541 35.7 541 17.8 541L0 541Z" fill="#ef5f67"></path><path d="M0 503L17.8 500C35.7 497 71.3 491 106.8 488.3C142.3 485.7 177.7 486.3 213.2 489.7C248.7 493 284.3 499 320 500.5C355.7 502 391.3 499 426.8 498.3C462.3 497.7 497.7 499.3 533.2 499.5C568.7 499.7 604.3 498.3 640 496C675.7 493.7 711.3 490.3 746.8 490.7C782.3 491 817.7 495 853.2 495C888.7 495 924.3 491 942.2 489L960 487L960 541L942.2 541C924.3 541 888.7 541 853.2 541C817.7 541 782.3 541 746.8 541C711.3 541 675.7 541 640 541C604.3 541 568.7 541 533.2 541C497.7 541 462.3 541 426.8 541C391.3 541 355.7 541 320 541C284.3 541 248.7 541 213.2 541C177.7 541 142.3 541 106.8 541C71.3 541 35.7 541 17.8 541L0 541Z" fill="#fa7268"></path></svg>