<svg id="visual" viewBox="0 0 900 600" width="900" height="600" xmlns="http://www.w3.org/2000/svg" xmlns:xlink="http://www.w3.org/1999/xlink" version="1.1"><rect x="0" y="0" width="900" height="600" fill="#001220"></rect><path d="M0 384L21.5 385.2C43 386.3 86 388.7 128.8 394.2C171.7 399.7 214.3 408.3 257.2 408.3C300 408.3 343 399.7 385.8 394C428.7 388.3 471.3 385.7 514.2 386C557 386.3 600 389.7 642.8 390.2C685.7 390.7 728.3 388.3 771.2 389.8C814 391.3 857 396.7 878.5 399.3L900 402L900 601L878.5 601C857 601 814 601 771.2 601C728.3 601 685.7 601 642.8 601C600 601 557 601 514.2 601C471.3 601 428.7 601 385.8 601C343 601 300 601 257.2 601C214.3 601 171.7 601 128.8 601C86 601 43 601 21.5 601L0 601Z" fill="#fa7268"></path><path d="M0 475L21.5 469.7C43 464.3 86 453.7 128.8 441.8C171.7 430 214.3 417 257.2 413.2C300 409.3 343 414.7 385.8 419.5C428.7 424.3 471.3 428.7 514.2 432.5C557 436.3 600 439.7 642.8 440.3C685.7 441 728.3 439 771.2 444.7C814 450.3 857 463.7 878.5 470.3L900 477L900 601L878.5 601C857 601 814 601 771.2 601C728.3 601 685.7 601 642.8 601C600 601 557 601 514.2 601C471.3 601 428.7 601 385.8 601C343 601 300 601 257.2 601C214.3 601 171.7 601 128.8 601C86 601 43 601 21.5 601L0 601Z" fill="#dc4267"></path><path d="M0 483L21.5 485.3C43 487.7 86 492.3 128.8 487C171.7 481.7 214.3 466.3 257.2 459.8C300 453.3 343 455.7 385.8 461C428.7 466.3 471.3 474.7 514.2 477.7C557 480.7 600 478.3 642.8 476C685.7 473.7 728.3 471.3 771.2 472.2C814 473 857 477 878.5 479L900 481L900 601L878.5 601C857 601 814 601 771.2 601C728.3 601 685.7 601 642.8 601C600 601 557 601 514.2 601C471.3 601 428.7 601 385.8 601C343 601 300 601 257.2 601C214.3 601 171.7 601 128.8 601C86 601 43 601 21.5 601L0 601Z" fill="#c62368"></path><path d="M0 491L21.5 491.3C43 491.7 86 492.3 128.8 495.7C171.7 499 214.3 505 257.2 509.8C300 514.7 343 518.3 385.8 519.5C428.7 520.7 471.3 519.3 514.2 516.7C557 514 600 510 642.8 504.8C685.7 499.7 728.3 493.3 771.2 496.7C814 500 857 513 878.5 519.5L900 526L900 601L878.5 601C857 601 814 601 771.2 601C728.3 601 685.7 601 642.8 601C600 601 557 601 514.2 601C471.3 601 428.7 601 385.8 601C343 601 300 601 257.2 601C214.3 601 171.7 601 128.8 601C86 601 43 601 21.5 601L0 601Z" fill="#dc4267"></path><path d="M0 568L21.5 566.5C43 565 86 562 128.8 557.7C171.7 553.3 214.3 547.7 257.2 542.8C300 538 343 534 385.8 537.5C428.7 541 471.3 552 514.2 554.2C557 556.3 600 549.7 642.8 547.5C685.7 545.3 728.3 547.7 771.2 547.7C814 547.7 857 545.3 878.5 544.2L900 543L900 601L878.5 601C857 601 814 601 771.2 601C728.3 601 685.7 601 642.8 601C600 601 557 601 514.2 601C471.3 601 428.7 601 385.8 601C343 601 300 601 257.2 601C214.3 601 171.7 601 128.8 601C86 601 43 601 21.5 601L0 601Z" fill="#fa7268"></path></svg>